<?xml version="1.0"?>
<svg xmlns="http://www.w3.org/2000/svg" height="50px" viewBox="0 0 64 64" width="50px" class="hovered-paths"><g><g id="Electric_Motor-electronics" data-name="Electric Motor-electronics"><g fill="#78b9eb"><path d="m3 29h8v6h-8z" data-original="#78B9EB" class="" style="fill:#20A2A0" data-old_color="#78B9EB"/><path d="m17 50h34v4h-34z" data-original="#78B9EB" class="" style="fill:#20A2A0" data-old_color="#78B9EB"/><path d="m23 25h23v3h-23z" data-original="#78B9EB" class="" style="fill:#20A2A0" data-old_color="#78B9EB"/><path d="m23 36h23v3h-23z" data-original="#78B9EB" class="" style="fill:#20A2A0" data-old_color="#78B9EB"/><path d="m18 19v27h33v-27zm28 23h-23v-20h23z" data-original="#78B9EB" class="" style="fill:#20A2A0" data-old_color="#78B9EB"/><path d="m24 15h10v4h-10z" data-original="#78B9EB" class="" style="fill:#20A2A0" data-old_color="#78B9EB"/><path d="m31 4h4v3h-4z" data-original="#78B9EB" class="" style="fill:#20A2A0" data-old_color="#78B9EB"/><path d="m23 4h4v3h-4z" data-original="#78B9EB" class="" style="fill:#20A2A0" data-old_color="#78B9EB"/></g><path d="m57 18h-22v-2h3a1 1 0 0 0 1-1v-8a1 1 0 0 0 -1-1h-2v-2a1 1 0 0 0 -1-1h-4a1 1 0 0 0 -1 1v2h-2v-2a1 1 0 0 0 -1-1h-4a1 1 0 0 0 -1 1v2h-2a1 1 0 0 0 -1 1v8a1 1 0 0 0 1 1h3v2h-10a3 3 0 0 0 -3 3v7h-7a1 1 0 0 0 -1 1v6a1 1 0 0 0 1 1h7v8a3 3 0 0 0 3 3h8v2h-4a1 1 0 0 0 -1 1v4a1 1 0 0 0 1 1h34a1 1 0 0 0 1-1v-4a1 1 0 0 0 -1-1h-4v-2h10a5.006 5.006 0 0 0 5-5v-19a5.006 5.006 0 0 0 -5-5zm-7 27h-31v-25h31zm-18-40h2v1h-2zm-8 0h2v1h-2zm-3 3h16v6h-16zm4 8h8v2h-8zm-21 18v-4h6v4zm12 11h-3a1 1 0 0 1 -1-1v-23a1 1 0 0 1 1-1h4v25zm34 8h-32v-2h32zm-5-4h-22v-2h22zm15-7a3 3 0 0 1 -3 3h-5v-25h5a3 3 0 0 1 3 3z" fill="#006df0" data-original="#006DF0" class="active-path" style="fill:#20A2A0" data-old_color="#006df0"/><path d="m54 23h4v2h-4z" fill="#006df0" data-original="#006DF0" class="active-path" style="fill:#20A2A0" data-old_color="#006df0"/><path d="m54 27h4v2h-4z" fill="#006df0" data-original="#006DF0" class="active-path" style="fill:#20A2A0" data-old_color="#006df0"/><path d="m22 22v20a1 1 0 0 0 1 1h23a1 1 0 0 0 1-1v-20a1 1 0 0 0 -1-1h-23a1 1 0 0 0 -1 1zm2 7h21v6h-21zm0 8h21v1h-21zm21-10h-21v-1h21zm-21 14v-1h21v1zm21-18v1h-21v-1z" fill="#006df0" data-original="#006DF0" class="active-path" style="fill:#20A2A0" data-old_color="#006df0"/></g></g> </svg>
